<svg width="30" height="30" viewBox="0 0 30 30" fill="none" xmlns="http://www.w3.org/2000/svg">
<rect width="30" height="30" rx="15" fill="#F2F2F4"/>
<path d="M12.725 8.1875C12.575 8.28125 12.5 8.42188 12.5 8.625C12.5 8.82812 12.575 8.96875 12.725 9.0625C12.825 9.12187 12.8875 9.125 15 9.125C17.1125 9.125 17.175 9.12187 17.275 9.0625C17.425 8.96875 17.5 8.82812 17.5 8.625C17.5 8.42188 17.425 8.28125 17.275 8.1875C17.175 8.12813 17.1125 8.125 15 8.125C12.8875 8.125 12.825 8.12813 12.725 8.1875Z" fill="#BDBDBD"/>
<path d="M9.225 9.68828C9.075 9.78203 9 9.92266 9 10.1258C9 10.3289 9.075 10.4695 9.225 10.5633C9.3125 10.6164 9.38438 10.6258 9.66563 10.6258H10V15.3852C10 20.6914 9.98438 20.2883 10.225 20.782C10.4688 21.282 10.9781 21.6852 11.5469 21.8289C11.825 21.9008 18.175 21.9008 18.4531 21.8289C19.0219 21.6852 19.5312 21.282 19.775 20.782C20.0156 20.2883 20 20.6914 20 15.3852V10.6258H20.3375C20.6156 10.6258 20.6875 10.6164 20.775 10.5633C20.925 10.4695 21 10.3289 21 10.1258C21 9.92266 20.925 9.78203 20.775 9.68828C20.6719 9.62578 20.6031 9.62578 15 9.62578C9.39687 9.62578 9.32812 9.62578 9.225 9.68828ZM18.9938 15.3195L18.9844 20.0164L18.9094 20.1977C18.8125 20.4414 18.5656 20.6883 18.3219 20.7852L18.1406 20.8602H15H11.8594L11.6781 20.7852C11.4344 20.6883 11.1875 20.4414 11.0906 20.1977L11.0156 20.0164L11.0063 15.3195L10.9969 10.6258H15H19.0031L18.9938 15.3195Z" fill="#BDBDBD"/>
<path d="M12.975 12.9375C12.9188 12.9719 12.8469 13.0437 12.8125 13.1C12.7531 13.2 12.75 13.2625 12.75 15.875C12.75 18.4875 12.7531 18.55 12.8125 18.65C12.9062 18.8 13.0469 18.875 13.25 18.875C13.4531 18.875 13.5938 18.8 13.6875 18.65C13.7469 18.55 13.75 18.4875 13.75 15.875C13.75 13.2625 13.7469 13.2 13.6875 13.1C13.5938 12.95 13.4531 12.875 13.25 12.875C13.1344 12.875 13.0438 12.8937 12.975 12.9375Z" fill="#BDBDBD"/>
<path d="M16.475 12.9375C16.4188 12.9719 16.3469 13.0437 16.3125 13.1C16.2531 13.2 16.25 13.2625 16.25 15.875C16.25 18.4875 16.2531 18.55 16.3125 18.65C16.4062 18.8 16.5469 18.875 16.75 18.875C16.9531 18.875 17.0938 18.8 17.1875 18.65C17.2469 18.55 17.25 18.4875 17.25 15.875C17.25 13.2625 17.2469 13.2 17.1875 13.1C17.0938 12.95 16.9531 12.875 16.75 12.875C16.6344 12.875 16.5438 12.8937 16.475 12.9375Z" fill="#BDBDBD"/>
</svg>
