<svg width="44" height="43" viewBox="0 0 44 43" fill="none" xmlns="http://www.w3.org/2000/svg">
<path d="M22.1954 42.4689C10.4857 42.4689 0.960938 32.9441 0.960938 21.2344C0.960938 9.52477 10.4857 0 22.1954 0C33.9051 0 43.4298 9.52477 43.4298 21.2344C43.4298 22.0056 42.804 22.6315 42.0328 22.6315C41.2617 22.6315 40.6358 22.0056 40.6358 21.2344C40.6358 11.0671 32.3628 2.79401 22.1954 2.79401C12.028 2.79401 3.75494 11.0671 3.75494 21.2344C3.75494 31.4018 12.028 39.6749 22.1954 39.6749C22.9665 39.6749 23.5924 40.3007 23.5924 41.0719C23.5924 41.843 22.9665 42.4689 22.1954 42.4689Z" fill="#FF7901"/>
<path d="M22.1984 24.3109C23.8958 24.3109 25.2718 22.9349 25.2718 21.2375C25.2718 19.5401 23.8958 18.1641 22.1984 18.1641C20.501 18.1641 19.125 19.5401 19.125 21.2375C19.125 22.9349 20.501 24.3109 22.1984 24.3109Z" fill="#FF7901"/>
<path d="M22.197 25.7064C19.7327 25.7064 17.7266 23.7003 17.7266 21.236C17.7266 18.7717 19.7327 16.7656 22.197 16.7656C24.6613 16.7656 26.6674 18.7717 26.6674 21.236C26.6674 23.7003 24.6613 25.7064 22.197 25.7064ZM22.197 19.5596C21.2722 19.5596 20.5206 20.3112 20.5206 21.236C20.5206 22.1609 21.2722 22.9124 22.197 22.9124C23.1218 22.9124 23.8734 22.1609 23.8734 21.236C23.8734 20.3112 23.1218 19.5596 22.197 19.5596Z" fill="#FF7901"/>
<path d="M36.4433 22.6294C35.6722 22.6294 35.0463 22.0035 35.0463 21.2324C35.0463 14.1468 29.2795 8.37994 22.1939 8.37994C21.4227 8.37994 20.7969 7.75409 20.7969 6.98294C20.7969 6.2118 21.4227 5.58594 22.1939 5.58594C30.8218 5.58594 37.8403 12.6045 37.8403 21.2324C37.8403 22.0035 37.2145 22.6294 36.4433 22.6294Z" fill="#FF7901"/>
<path d="M43.4298 21.2342H40.6358C40.6358 11.0668 32.3627 2.79376 22.1953 2.79376V-0.000244141C33.905 -0.000244141 43.4298 9.52452 43.4298 21.2342Z" fill="#FF7901"/>
<path d="M30.8553 22.6312C30.0842 22.6312 29.4583 22.0054 29.4583 21.2342C29.4583 17.2276 26.2005 13.9698 22.1939 13.9698C21.4227 13.9698 20.7969 13.3439 20.7969 12.5728C20.7969 11.8016 21.4227 11.1758 22.1939 11.1758C27.74 11.1758 32.2523 15.6881 32.2523 21.2342C32.2523 22.0054 31.6264 22.6312 30.8553 22.6312Z" fill="#FF7901"/>
</svg>
