<svg width="16" height="16" viewBox="0 0 16 16" fill="none" xmlns="http://www.w3.org/2000/svg">
<path d="M2.78125 0.518806C2.14375 0.656306 1.65 1.15318 1.51563 1.79693C1.475 1.98443 1.46875 2.84068 1.46875 7.96881C1.46875 11.8188 1.48125 13.9938 1.5 14.1251C1.6 14.7594 2.14688 15.3376 2.775 15.4657C2.89063 15.4907 4.45 15.5001 7.94688 15.5001C13.4531 15.5001 13.1563 15.5094 13.5344 15.3063C13.9469 15.0876 14.3031 14.5876 14.375 14.1251C14.3938 13.9938 14.4063 12.2032 14.4063 9.15006V4.37818L12.8219 4.36881L11.2344 4.35943L11.0563 4.27193C10.8406 4.16568 10.6531 3.98443 10.5563 3.78756C10.4844 3.64068 10.4844 3.64068 10.475 2.05318L10.4656 0.468806L6.725 0.471931C3.63438 0.471931 2.95 0.481306 2.78125 0.518806ZM11.1969 7.54068C11.475 7.72193 11.4656 8.11568 11.1813 8.27193C11.0844 8.32506 10.9 8.32818 7.89063 8.32818C4.88125 8.32818 4.69688 8.32506 4.6 8.27193C4.27188 8.09381 4.32188 7.60943 4.675 7.50006C4.725 7.48443 6.19375 7.47506 7.9375 7.47818C10.9406 7.48443 11.1156 7.48756 11.1969 7.54068ZM10.1438 9.38131C10.3406 9.59693 10.2781 9.90318 10.0156 10.0313C9.89063 10.0907 9.8125 10.0938 7.30938 10.0938C4.91875 10.0938 4.725 10.0907 4.625 10.0376C4.32188 9.88756 4.29375 9.48131 4.57188 9.31256C4.66875 9.25006 4.7375 9.25006 7.35313 9.25631L10.0375 9.26568L10.1438 9.38131ZM10.7031 11.0938C10.9438 11.3188 10.9188 11.6157 10.65 11.7813C10.55 11.8438 10.4844 11.8438 7.63125 11.8438C5.1875 11.8438 4.70313 11.8376 4.63125 11.8001C4.31563 11.6344 4.29375 11.2188 4.59688 11.0563C4.69688 11.0032 4.84063 11.0001 7.6625 11.0063L10.6188 11.0157L10.7031 11.0938Z" fill="#7D7D7E"/>
<path d="M11.3125 2.09113V3.46925L11.3938 3.5005C11.4938 3.54113 14.125 3.54113 14.125 3.50363C14.125 3.488 13.4938 2.85363 12.7188 2.09425L11.3125 0.713001V2.09113Z" fill="#7D7D7E"/>
</svg>
