<svg width="16" height="16" viewBox="0 0 16 16" fill="none" xmlns="http://www.w3.org/2000/svg">
<g clip-path="url(#clip0_2_1268)">
<path d="M7.50671 0.18971C7.26296 0.230334 6.89109 0.361585 6.65671 0.486585C6.44109 0.599085 6.30984 0.699084 5.92546 1.03346C5.47546 1.42408 5.07859 1.57721 4.39109 1.62408C3.92234 1.65533 3.90359 1.65846 3.59421 1.75533C2.45984 2.11471 1.63171 3.21471 1.62546 4.37096C1.62234 4.80221 1.50046 5.24596 1.28171 5.60221C1.22859 5.69283 1.07234 5.89283 0.931711 6.04596C0.637961 6.37721 0.472336 6.63971 0.344211 6.99283C0.106711 7.64596 0.100461 8.33033 0.331711 8.97408C0.472336 9.36783 0.622336 9.60221 1.03484 10.0741C1.40359 10.496 1.58171 10.9303 1.61296 11.4803C1.64734 12.1116 1.73484 12.4647 1.97234 12.9022C2.22859 13.3803 2.61609 13.7678 3.09421 14.0272C3.52859 14.2616 3.80984 14.3366 4.39109 14.3741C5.07859 14.4178 5.47546 14.571 5.92546 14.9647C6.33796 15.3241 6.44734 15.4022 6.73484 15.546C7.20359 15.7772 7.43171 15.8272 8.01609 15.8241C8.46921 15.8241 8.54421 15.8147 8.79734 15.7366C9.27859 15.5897 9.53484 15.4366 10.0755 14.9647C10.5255 14.571 10.9223 14.4178 11.6098 14.3741C12.1911 14.3366 12.4723 14.2616 12.9067 14.0272C13.3848 13.7678 13.7723 13.3803 14.0286 12.9022C14.2661 12.4647 14.3536 12.1116 14.388 11.4803C14.4192 10.9303 14.5973 10.496 14.9661 10.0741C15.3786 9.60221 15.5286 9.36783 15.6692 8.97408C15.8942 8.34283 15.8942 7.65846 15.6692 7.02408C15.5286 6.63033 15.3848 6.40221 14.9661 5.92408C14.5973 5.50221 14.4192 5.06783 14.388 4.51783C14.3661 4.10533 14.3255 3.84283 14.2442 3.59283C14.0192 2.89596 13.538 2.31158 12.9067 1.97096C12.4723 1.73658 12.1911 1.66158 11.6098 1.62408C10.9223 1.58033 10.5255 1.42721 10.0755 1.03346C9.53171 0.561584 9.27546 0.405334 8.79734 0.264709C8.56921 0.195959 8.43796 0.17721 8.09421 0.170959C7.86296 0.164709 7.59734 0.170959 7.50671 0.18971Z" fill="#7D7D7E"/>
<path d="M12.0696 4.52734C11.8571 4.60859 11.6727 4.69609 11.6571 4.72109C11.6446 4.74296 11.5727 5.12109 11.4977 5.55234C11.4227 5.98671 11.354 6.34296 11.3446 6.34296C11.3352 6.34296 11.1665 6.20859 10.9696 6.04296C10.7727 5.88046 10.4821 5.64296 10.3258 5.51484L10.0383 5.28046L9.63834 5.42421C9.41647 5.50234 9.22272 5.57734 9.21022 5.58984C9.19772 5.60234 9.64147 5.96484 10.2008 6.39296L11.2133 7.17109L11.4821 7.90234C11.629 8.30234 11.754 8.63671 11.7602 8.64296C11.7821 8.66796 12.4696 8.38671 12.4696 8.35546C12.4696 8.33359 12.3571 8.00859 12.2196 7.63046C12.0821 7.25546 11.9696 6.91484 11.9696 6.87734C11.9696 6.84296 12.0821 6.28359 12.2227 5.63671C12.3602 4.98984 12.4696 4.44609 12.4633 4.42109C12.4571 4.39296 12.3446 4.42421 12.0696 4.52734Z" fill="black"/>
<path d="M8.46322 5.85313C8.27572 5.925 8.12572 5.99688 8.12572 6.0125C8.12572 6.02813 8.31947 6.625 8.55385 7.33437C8.96635 8.58125 8.97885 8.62812 8.94135 8.75C8.85697 9.03125 8.55385 9.22812 8.20385 9.22812C7.8976 9.23125 7.73822 9.10938 7.5976 8.76875C7.5476 8.64688 7.34135 8.09687 7.14135 7.54688C6.93822 6.99688 6.76322 6.53437 6.7476 6.51875C6.71635 6.48438 6.06322 6.71875 6.04135 6.76875C6.0226 6.82187 6.80697 8.95625 6.9476 9.23438C7.1101 9.55 7.30072 9.75312 7.54135 9.875C7.70697 9.95625 7.76322 9.96875 7.9976 9.96875C8.46947 9.96875 9.10072 9.7375 9.40072 9.45625C9.76322 9.11562 9.8601 8.7125 9.7101 8.15625C9.60697 7.775 8.86635 5.74062 8.82885 5.73125C8.8101 5.725 8.6476 5.78125 8.46322 5.85313Z" fill="black"/>
<path d="M4.625 7.30115C4.32187 7.35115 2.5 7.99177 2.5 8.04802C2.5 8.1199 3.80938 11.4824 3.84063 11.4918C3.9 11.5105 5.60625 10.8855 5.89375 10.7386C6.12188 10.623 6.32812 10.3855 6.39375 10.1668C6.46563 9.92302 6.44375 9.53552 6.34687 9.33552C6.2 9.0324 5.97187 8.87927 5.58438 8.82302C5.44688 8.80427 5.4375 8.79802 5.48125 8.75115C5.65625 8.5574 5.7125 8.10427 5.59375 7.85427C5.49375 7.65115 5.3 7.45115 5.13438 7.3824C4.975 7.31365 4.75312 7.27927 4.625 7.30115ZM4.70312 8.04177C4.99375 8.16365 5.01562 8.57615 4.7375 8.7449C4.625 8.81677 3.83438 9.12302 3.77188 9.12302C3.74063 9.12302 3.65313 8.91365 3.475 8.41052C3.45938 8.36677 3.5625 8.3199 4.07812 8.13865C4.50625 7.98865 4.55313 7.97927 4.70312 8.04177ZM5.39688 9.4699C5.57188 9.53552 5.65625 9.89802 5.54063 10.0949C5.5125 10.1418 5.40937 10.2261 5.31562 10.2761C5.1375 10.3699 4.37813 10.6543 4.30625 10.6543C4.25937 10.6543 3.95625 9.81052 3.99063 9.77615C4.02188 9.75115 4.84375 9.47927 5.01562 9.43865C5.14062 9.41052 5.26562 9.4199 5.39688 9.4699Z" fill="black"/>
</g>
<defs>
<clipPath id="clip0_2_1268">
<rect width="16" height="16" fill="white"/>
</clipPath>
</defs>
</svg>
