<svg width="16" height="16" viewBox="0 0 16 16" fill="none" xmlns="http://www.w3.org/2000/svg">
<g clip-path="url(#clip0_2_1298)">
<path d="M15.3 6.13036C15.3 5.85421 15.0762 5.63036 14.8 5.63036H13.6437C13.3675 5.63036 13.1437 5.4065 13.1437 5.13036V3.6759C13.1437 3.5377 13.0865 3.40566 12.9856 3.31114L9.59804 0.135233C9.50537 0.048351 9.3831 0 9.25607 0H1.19922C0.923077 0 0.699219 0.223858 0.699219 0.5V15.5C0.699219 15.7761 0.923076 16 1.19922 16H12.6437C12.9198 16 13.1437 15.7761 13.1437 15.5V14.2516C13.1437 13.9754 13.3675 13.7516 13.6437 13.7516H14.8C15.0762 13.7516 15.3 13.5277 15.3 13.2516V6.13036ZM13.9667 11.9182C13.9667 12.1944 13.7428 12.4182 13.4667 12.4182H5.13335C4.85721 12.4182 4.63335 12.1944 4.63335 11.9182V7.46369C4.63335 7.18755 4.85721 6.96369 5.13335 6.96369H13.4667C13.7428 6.96369 13.9667 7.18755 13.9667 7.46369V11.9182Z" fill="#7D7D7E"/>
<path d="M7.5952 10.6809C7.5952 10.5502 7.48926 10.4443 7.35858 10.4443H6.67934C6.4032 10.4443 6.17934 10.2204 6.17934 9.94427V8.41047C6.17934 8.26144 6.05852 8.14062 5.90949 8.14062C5.76046 8.14062 5.63965 8.26144 5.63965 8.41047V10.4175C5.63965 10.6937 5.86351 10.9175 6.13965 10.9175H7.35858C7.48926 10.9175 7.5952 10.8116 7.5952 10.6809Z" fill="#7D7D7E"/>
<path d="M7.95257 10.4971C8.07119 10.6288 8.21328 10.7344 8.37892 10.8139C8.54448 10.8935 8.72897 10.9332 8.9323 10.9332C9.12786 10.9332 9.30906 10.8947 9.47595 10.8178C9.64279 10.7409 9.78617 10.6379 9.90617 10.5088C10.0261 10.3798 10.12 10.2311 10.1878 10.063C10.2555 9.89479 10.2895 9.71817 10.2895 9.53301C10.2895 9.35834 10.2568 9.18625 10.1917 9.01674C10.1265 8.84728 10.0352 8.69603 9.91795 8.56305C9.80057 8.43008 9.65915 8.32252 9.49359 8.24039C9.32795 8.15825 9.14479 8.11719 8.94408 8.11719C8.74852 8.11719 8.56724 8.15568 8.40044 8.23257C8.23355 8.30954 8.0895 8.41319 7.96826 8.5435C7.84697 8.67394 7.75181 8.82381 7.68275 8.99328C7.61359 9.16279 7.5791 9.34008 7.5791 9.52519C7.5791 9.70257 7.61168 9.87594 7.67688 10.0454C7.74199 10.2149 7.8339 10.3655 7.95257 10.4971ZM8.17946 9.18688C8.21466 9.07608 8.26608 8.97701 8.33395 8.88963C8.40172 8.8023 8.48652 8.7319 8.58821 8.67843C8.6899 8.62501 8.8059 8.59825 8.9363 8.59825C9.06141 8.59825 9.17417 8.62368 9.27457 8.67452C9.37492 8.72537 9.45968 8.79381 9.52884 8.87985C9.5979 8.9659 9.65137 9.06501 9.68915 9.1771C9.72692 9.28923 9.74586 9.40528 9.74586 9.52514C9.74586 9.63994 9.72821 9.75265 9.69301 9.86345C9.65781 9.9743 9.60563 10.074 9.53657 10.1627C9.46741 10.2513 9.38266 10.3224 9.2823 10.3758C9.1819 10.4293 9.06657 10.456 8.93621 10.456C8.80839 10.456 8.69435 10.4299 8.59399 10.3778C8.49355 10.3256 8.40884 10.2565 8.33977 10.1705C8.27061 10.0844 8.21786 9.98537 8.18137 9.87323C8.14484 9.76119 8.12661 9.6451 8.12661 9.52514C8.12661 9.41048 8.14426 9.29772 8.17946 9.18688Z" fill="#7D7D7E"/>
<path d="M10.9253 10.5225C11.0439 10.6503 11.1835 10.7507 11.3438 10.8237C11.5042 10.8967 11.6756 10.9332 11.8581 10.9332C12.0808 10.9332 12.2826 10.8699 12.4637 10.7433C12.5306 10.6965 12.6325 10.7403 12.6325 10.822C12.6325 10.8726 12.6736 10.9136 12.7242 10.9136H12.8555C12.9786 10.9136 13.0784 10.8138 13.0784 10.6907V9.98608C13.0784 9.70993 12.8545 9.48608 12.5784 9.48608H12.2707C12.1617 9.48608 12.0732 9.57451 12.0732 9.68359C12.0732 9.79267 12.1617 9.8811 12.2707 9.8811H12.4897C12.5686 9.8811 12.6325 9.94503 12.6325 10.0239C12.6325 10.0579 12.6205 10.0911 12.5975 10.1162C12.39 10.3428 12.1592 10.456 11.9051 10.456C11.7877 10.456 11.6788 10.4319 11.5785 10.3837C11.4781 10.3355 11.3914 10.2696 11.3184 10.1862C11.2453 10.1027 11.1879 10.0043 11.1463 9.89088C11.1046 9.77745 11.0837 9.65563 11.0837 9.52519C11.0837 9.40003 11.1026 9.28141 11.1404 9.16928C11.1782 9.05723 11.2317 8.95808 11.3008 8.87203C11.3698 8.78599 11.4533 8.71821 11.5511 8.66865C11.6488 8.61914 11.7564 8.59434 11.8738 8.59434C12.0224 8.59434 12.1599 8.63088 12.2864 8.70385C12.3295 8.7288 12.3694 8.75754 12.4061 8.79007C12.5202 8.89141 12.6934 8.93819 12.8163 8.84755C12.9134 8.77589 12.9471 8.64215 12.8724 8.54731C12.7898 8.44226 12.687 8.35364 12.5641 8.28145C12.3776 8.17194 12.154 8.11719 11.8933 8.11719C11.7003 8.11719 11.5218 8.15434 11.3575 8.22865C11.1932 8.30297 11.0505 8.40337 10.9292 8.52981C10.808 8.65634 10.7127 8.80359 10.6437 8.97177C10.5746 9.13994 10.54 9.31923 10.54 9.50954C10.54 9.71034 10.5746 9.89741 10.6437 10.0708C10.7128 10.2442 10.8067 10.3948 10.9253 10.5225Z" fill="#7D7D7E"/>
</g>
<defs>
<clipPath id="clip0_2_1298">
<rect width="16" height="16" fill="white"/>
</clipPath>
</defs>
</svg>
