<svg width="16" height="16" viewBox="0 0 16 16" fill="none" xmlns="http://www.w3.org/2000/svg">
<g clip-path="url(#clip0_2_1290)">
<path d="M12.8466 6.35677C12.476 6.2885 12.1379 6.49331 12.0696 6.86394C11.9688 7.47189 11.699 7.97905 11.2568 8.4212C10.8179 8.82759 10.275 9.12994 9.69957 9.23397C9.36146 9.30224 9.12413 9.64035 9.19241 10.011C9.26068 10.3491 9.56628 10.5929 9.9369 10.5507C10.7822 10.3816 11.5592 9.97521 12.1704 9.36726C12.7783 8.75931 13.1847 7.97905 13.3538 7.13378C13.4221 6.76315 13.2205 6.42504 12.8466 6.35677Z" fill="#7D7D7E"/>
<path d="M9.43004 0C5.8181 0 2.88563 2.92922 2.88563 6.54441C2.88563 7.51648 3.09695 8.43979 3.47732 9.26881L1.04227 11.3983C-0.732819 13.2254 0.26526 14.8151 0.736666 15.2866C1.17556 15.7612 2.8141 16.7658 4.62495 14.9809L6.77066 12.5231C7.58343 12.884 8.48073 13.0856 9.42679 13.0856C13.042 13.0856 15.9712 10.1564 15.9712 6.54116C15.9712 2.92597 13.0452 0 9.43004 0ZM9.43004 11.7201C6.57234 11.7201 4.25433 9.40211 4.25433 6.54441C4.25433 3.68672 6.57234 1.3687 9.43004 1.3687C12.2877 1.3687 14.6058 3.68672 14.6058 6.54441C14.6058 9.40211 12.291 11.7201 9.43004 11.7201Z" fill="#7D7D7E"/>
</g>
<defs>
<clipPath id="clip0_2_1290">
<rect width="16" height="16" fill="white"/>
</clipPath>
</defs>
</svg>
