<svg width="20" height="20" viewBox="0 0 20 20" fill="none" xmlns="http://www.w3.org/2000/svg">
<g clip-path="url(#clip0_2_1318)">
<path d="M2.75569 2.05625C2.45256 2.1625 2.17444 2.4375 2.05569 2.75C1.99631 2.90625 1.99631 2.99063 2.00256 4.7125L2.01194 6.51563L2.11819 6.7125C2.24631 6.94688 2.44006 7.13438 2.67756 7.24375L2.85569 7.32812H5.66819H8.48069L8.66819 7.2375C8.90569 7.11875 9.11507 6.90938 9.23382 6.67188L9.32444 6.48438V4.67188V2.85938L9.24007 2.68125C9.13069 2.44375 8.94319 2.25 8.70882 2.12188L8.51194 2.01563L5.71507 2.00938C3.09319 2.00313 2.90881 2.00625 2.75569 2.05625Z" fill="#7D7D7E"/>
<path d="M11.4585 2.04375C11.1397 2.15938 10.8897 2.38437 10.7491 2.68437L10.6678 2.85938V6.67188V10.4844L10.7585 10.6719C10.8772 10.9094 11.0866 11.1187 11.3241 11.2375L11.5116 11.3281H14.3241H17.1366L17.3147 11.2437C17.5522 11.1344 17.746 10.9469 17.8741 10.7125L17.9803 10.5156V6.67188V2.82812L17.896 2.65625C17.7866 2.43437 17.5616 2.20937 17.3397 2.1L17.1678 2.01562L14.371 2.00937C12.1241 2.00313 11.5522 2.00937 11.4585 2.04375Z" fill="#7D7D7E"/>
<path d="M2.81785 8.7C2.50847 8.8 2.2616 9.00937 2.0991 9.31875L2.0116 9.48438V13.3281V17.1719L2.09597 17.3438C2.20535 17.5656 2.43035 17.7906 2.65222 17.9L2.8241 17.9844H5.66785H8.5116L8.70847 17.8781C8.94285 17.75 9.13035 17.5563 9.23972 17.3187L9.3241 17.1406V13.3281V9.51562L9.23347 9.32812C9.11472 9.09062 8.90535 8.88125 8.66785 8.7625L8.48035 8.67188L5.71472 8.66562C3.48972 8.6625 2.9241 8.66875 2.81785 8.7Z" fill="#7D7D7E"/>
<path d="M11.4396 12.7188C11.2084 12.8031 11.0021 12.9594 10.8615 13.1563C10.6459 13.4656 10.649 13.4438 10.6584 15.3938L10.6677 17.1406L10.7521 17.3188C10.8615 17.5563 11.049 17.75 11.2834 17.8781L11.4802 17.9844H14.324H17.1677L17.3396 17.9C17.5615 17.7906 17.7865 17.5656 17.8959 17.3438L17.9802 17.1719V15.3281V13.4844L17.874 13.2875C17.7459 13.0531 17.5521 12.8656 17.3146 12.7563L17.1365 12.6719L14.3709 12.6656C11.7115 12.6594 11.599 12.6594 11.4396 12.7188Z" fill="#7D7D7E"/>
</g>
<defs>
<clipPath id="clip0_2_1318">
<rect width="16" height="16" fill="white" transform="translate(2 2)"/>
</clipPath>
</defs>
</svg>
