<svg width="16" height="16" viewBox="0 0 16 16" fill="none" xmlns="http://www.w3.org/2000/svg">
<g clip-path="url(#clip0_2_882)">
<path d="M7.76563 0.0343749C6.49688 0.16875 5.15313 0.634375 4.07188 1.31562C2.96563 2.0125 1.90625 3.08125 1.25938 4.1625C0.44375 5.525 0 7.05312 0 8.49687C0 8.90625 0.0375 9.00937 0.225 9.125C0.328125 9.1875 0.39375 9.1875 4.57813 9.1875C8.5625 9.1875 8.83438 9.18437 8.93438 9.13125C8.99375 9.10312 9.07188 9.0375 9.10625 8.99062C9.17188 8.90312 9.17188 8.89687 9.18125 4.61562C9.1875 0.38125 9.1875 0.328125 9.125 0.225C9.00625 0.0312499 8.9125 -1.36904e-07 8.4375 0.00312486C8.20625 0.00624986 7.90313 0.0187499 7.76563 0.0343749Z" fill="#7D7D7E"/>
<path d="M10.6309 1.71875C10.5121 1.74687 10.3902 1.85 10.3246 1.975C10.259 2.1 10.259 5.01562 10.3246 5.17187C10.359 5.25312 10.4434 5.325 10.6496 5.4625C11.0309 5.7125 11.2465 5.89375 11.5027 6.175C11.984 6.70312 12.2934 7.32812 12.4371 8.06875L12.4715 8.25H14.2402H16.009L15.984 7.95937C15.9434 7.39375 15.7621 6.64375 15.5246 6.0375C14.884 4.39375 13.6027 2.97812 12.0465 2.19375C11.584 1.95937 10.8496 1.675 10.7527 1.69062C10.7434 1.69375 10.6871 1.70625 10.6309 1.71875Z" fill="#7D7D7E"/>
<path d="M12.4688 9.16719C12.4688 9.17344 12.4469 9.28906 12.4219 9.42344C12.1375 10.9172 10.9188 12.1359 9.425 12.4203C9.29063 12.4453 9.175 12.4672 9.16875 12.4672C9.1625 12.4672 9.15625 13.2641 9.15625 14.2359V16.0078L9.44063 15.9891C9.7875 15.9641 10.4063 15.8391 10.8281 15.7109C12.025 15.3484 12.9844 14.7703 13.8781 13.8766C14.7719 12.9797 15.35 12.0203 15.7125 10.8266C15.8406 10.4078 15.9656 9.77969 15.9906 9.43594L16.0094 9.15469H14.2375C13.2656 9.15469 12.4688 9.16094 12.4688 9.16719Z" fill="#7D7D7E"/>
<path d="M1.95312 10.3391C1.7125 10.4859 1.65625 10.6703 1.75312 10.9891C2.21562 12.4922 3.34062 13.9547 4.74687 14.8641C5.68125 15.4703 6.925 15.9047 7.9625 15.9828L8.25 16.0078V14.2391V12.4703L8.07187 12.4359C7.32812 12.2922 6.70312 11.9828 6.175 11.5016C5.89375 11.2453 5.7125 11.0297 5.4625 10.6484C5.325 10.4422 5.25312 10.3578 5.17187 10.3234C5.08437 10.2891 4.8 10.2797 3.55625 10.2797C2.14062 10.2797 2.04062 10.2828 1.95312 10.3391Z" fill="#7D7D7E"/>
</g>
<defs>
<clipPath id="clip0_2_882">
<rect width="16" height="16" fill="white"/>
</clipPath>
</defs>
</svg>
