<svg width="16" height="16" viewBox="0 0 16 16" fill="none" xmlns="http://www.w3.org/2000/svg">
<g clip-path="url(#clip0_2_1283)">
<path d="M7.45273 0.0171871C7.41836 0.0265627 7.27773 0.0546875 7.14023 0.0796871C5.51211 0.392188 4.16211 1.80156 3.89023 3.46719C3.83086 3.84219 3.83086 4.46094 3.89023 4.83281C4.17461 6.58594 5.56523 7.97031 7.34336 8.26406C7.69023 8.32344 8.31523 8.32344 8.67773 8.26406C10.3559 7.99219 11.7215 6.68281 12.084 4.99844C12.1652 4.62344 12.1652 3.68594 12.084 3.31094C11.734 1.69531 10.4902 0.439063 8.87461 0.0765619C8.64648 0.0234375 7.60273 -0.0171881 7.45273 0.0171871Z" fill="#7D7D7E"/>
<path d="M4.56218 8.65276C3.54343 8.86839 2.68093 9.32776 1.96843 10.0309C1.49656 10.4965 0.993431 11.2215 0.855931 11.6309C0.790306 11.8309 0.821556 11.9215 1.11218 12.3496C2.19968 13.959 3.85906 15.1715 5.67156 15.684C6.96843 16.0465 8.36531 16.1028 9.64343 15.8434C10.9184 15.584 12.1778 14.9903 13.1747 14.1871C13.7966 13.6871 14.5997 12.7809 15.0091 12.1215C15.2216 11.7746 15.2216 11.759 15.0184 11.359C14.3028 9.95276 12.8934 8.91214 11.3341 8.63714C10.9403 8.56839 10.8059 8.59651 10.4591 8.82464C9.68718 9.33089 8.90281 9.56839 7.99968 9.56839C7.07468 9.56839 6.33093 9.33714 5.47156 8.78089C5.23718 8.62776 5.19343 8.61214 5.01843 8.60589C4.91531 8.59964 4.70906 8.62151 4.56218 8.65276Z" fill="#7D7D7E"/>
</g>
</svg>
